<?xml version="1.0" encoding="UTF-8" standalone="no"?>
<!-- Generator: Adobe Illustrator 16.0.4, SVG Export Plug-In . SVG Version: 6.00 Build 0)  -->
<svg xmlns:ns="&amp;ns_sfw;" xmlns:dc="http://purl.org/dc/elements/1.1/" xmlns:cc="http://creativecommons.org/ns#" xmlns:rdf="http://www.w3.org/1999/02/22-rdf-syntax-ns#" xmlns:svg="http://www.w3.org/2000/svg" xmlns="http://www.w3.org/2000/svg" xmlns:xlink="http://www.w3.org/1999/xlink" xmlns:sodipodi="http://sodipodi.sourceforge.net/DTD/sodipodi-0.dtd" xmlns:inkscape="http://www.inkscape.org/namespaces/inkscape" version="1.1" id="Layer_1" x="0px" y="0px" width="144" height="144" viewBox="0 0 144 144" enable-background="new 0 0 250 200" xml:space="preserve" inkscape:version="0.48.4 r9939" sodipodi:docname="logo_homepage.alt.v106.svg" inkscape:export-filename="C:\Users\Doug\Desktop\dax-alt.png" inkscape:export-xdpi="19.264803" inkscape:export-ydpi="19.264803"><defs id="defs113"/><sodipodi:namedview pagecolor="#ffffff" bordercolor="#666666" borderopacity="1" objecttolerance="10" gridtolerance="10" guidetolerance="10" inkscape:pageopacity="0" inkscape:pageshadow="2" inkscape:window-width="1042" inkscape:window-height="747" id="namedview111" showgrid="true" showguides="true" inkscape:guide-bbox="true" inkscape:zoom="3.2357206" inkscape:cx="84.120928" inkscape:cy="66.927929" inkscape:window-x="515" inkscape:window-y="96" inkscape:window-maximized="0" inkscape:current-layer="Layer_1"><inkscape:grid type="xygrid" id="grid3090" empspacing="5" visible="true" enabled="true" snapvisiblegridlinesonly="true"/><sodipodi:guide orientation="0,1" position="-20,145" id="guide3092"/></sodipodi:namedview>
<metadata id="metadata3">
	<ns:sfw>
		<ns:slices/>
		<ns:sliceSourceBounds y="-29.418" x="-53.246" width="204.872" height="156.819" bottomLeftOrigin="true"/>
	</ns:sfw>
<rdf:RDF><cc:Work rdf:about=""><dc:format>image/svg+xml</dc:format><dc:type rdf:resource="http://purl.org/dc/dcmitype/StillImage"/><dc:title/></cc:Work></rdf:RDF></metadata>
<g id="g5" transform="matrix(1.2785388,0,0,1.2785388,-90.401282,-27.531687)">
	<g id="g7">
		<g id="g9">
			<g id="g11">
				<g id="g13">
					<g id="g15">
						<g id="g17">
							<g id="g19">
								<defs id="defs21">
									<path id="SVGID_1_" d="m 178.374,77.707 c 0,28.316 -23.036,51.354 -51.356,51.354 -28.312,0 -51.348,-23.039 -51.348,-51.354 0,-28.313 23.036,-51.348 51.348,-51.348 28.32,-0.001 51.356,23.035 51.356,51.348 z" inkscape:connector-curvature="0"/>
								</defs>
								<clipPath id="SVGID_2_">
									<use xlink:href="#SVGID_1_" overflow="visible" id="use25" style="overflow:visible" x="0" y="0" width="250" height="200"/>
								</clipPath>
								<g clip-path="url(#SVGID_2_)" id="g27">
									<path d="m 147.982,154.041 c -1.801,-8.285 -12.262,-27.039 -16.229,-34.969 -3.965,-7.93 -7.939,-19.11 -6.129,-26.322 0.327,-1.312 -3.436,-11.307 -2.354,-12.014 8.416,-5.49 10.632,0.598 14.001,-1.863 1.736,-1.273 4.09,1.047 4.691,-1.059 2.158,-7.568 -3.006,-20.76 -8.77,-26.527 -1.885,-1.879 -4.771,-3.059 -8.029,-3.686 -1.254,-1.713 -3.275,-3.361 -6.138,-4.879 -3.188,-1.697 -10.121,-3.938 -13.717,-4.535 -2.492,-0.41 -3.055,0.287 -4.119,0.461 0.992,0.088 5.699,2.414 6.615,2.549 -0.916,0.619 -3.607,-0.029 -5.324,0.742 -0.865,0.391 -1.512,1.877 -1.506,2.58 4.91,-0.496 12.574,-0.016 17.1,2 -3.602,0.41 -9.08,0.867 -11.436,2.105 -6.848,3.609 -9.873,12.035 -8.07,22.133 1.804,10.075 9.738,46.849 12.262,59.129 2.525,12.263 -5.408,20.189 -10.455,22.354 l 5.408,0.363 -1.801,3.967 c 6.484,0.719 13.695,-1.441 13.695,-1.441 -1.438,3.965 -11.176,5.412 -11.176,5.412 0,0 4.691,1.438 12.258,-1.447 7.575,-2.883 12.264,-4.688 12.264,-4.688 l 3.604,9.373 6.854,-6.846 2.886,7.211 c 0.008,-0.001 5.418,-1.808 3.615,-10.103 z" id="path29" inkscape:connector-curvature="0" style="fill:#d5d7d8"/>
									<path d="m 150.16,152.359 c -1.795,-8.289 -12.256,-27.043 -16.227,-34.978 -3.971,-7.935 -7.936,-19.112 -6.129,-26.321 0.334,-1.309 0.34,-6.668 1.428,-7.379 8.41,-5.494 7.812,-0.184 11.186,-2.645 1.74,-1.27 3.133,-2.805 3.738,-4.912 2.164,-7.572 -3.006,-20.76 -8.773,-26.529 -1.879,-1.879 -4.768,-3.062 -8.025,-3.686 -1.252,-1.717 -3.271,-3.361 -6.129,-4.881 -5.391,-2.863 -12.074,-4.006 -18.266,-2.883 0.99,0.09 3.256,2.137 4.168,2.273 -1.381,0.936 -5.053,0.816 -5.029,2.896 4.916,-0.492 10.303,0.285 14.834,2.297 -3.602,0.41 -6.955,1.299 -9.311,2.543 -6.854,3.602 -8.656,10.812 -6.854,20.914 1.807,10.096 9.742,46.871 12.256,59.126 2.527,12.259 -5.402,20.188 -10.449,22.353 l 5.408,0.359 -1.801,3.973 c 6.484,0.72 13.695,-1.44 13.695,-1.44 -1.438,3.972 -11.176,5.406 -11.176,5.406 0,0 4.686,1.44 12.258,-1.445 7.578,-2.883 12.27,-4.687 12.27,-4.687 l 3.602,9.373 6.854,-6.853 2.891,7.214 c -0.015,0.008 5.39,-1.797 3.581,-10.088 z" id="path31" inkscape:connector-curvature="0" style="fill:#ffffff"/>
									<path d="m 108.711,69.574 c 0,-2.092 1.693,-3.787 3.789,-3.787 2.09,0 3.785,1.695 3.785,3.787 0,2.094 -1.695,3.787 -3.785,3.787 -2.096,0 -3.789,-1.693 -3.789,-3.787 z" id="path33" inkscape:connector-curvature="0" style="fill:#2d4f8e"/>
									<path d="m 113.197,68.312 c 0,-0.545 0.441,-0.984 0.98,-0.984 0.543,0 0.984,0.439 0.984,0.984 0,0.543 -0.441,0.984 -0.984,0.984 -0.538,10e-4 -0.98,-0.441 -0.98,-0.984 z" id="path35" inkscape:connector-curvature="0" style="fill:#ffffff"/>
									<path d="m 134.557,67.328 c 0,-1.793 1.461,-3.25 3.252,-3.25 1.801,0 3.256,1.457 3.256,3.25 0,1.801 -1.455,3.258 -3.256,3.258 -1.791,0 -3.252,-1.457 -3.252,-3.258 z" id="path37" inkscape:connector-curvature="0" style="fill:#2d4f8e"/>
									<path d="m 138.414,66.246 c 0,-0.463 0.379,-0.842 0.838,-0.842 0.477,0 0.844,0.379 0.844,0.842 0,0.469 -0.367,0.842 -0.844,0.842 -0.459,0 -0.838,-0.373 -0.838,-0.842 z" id="path39" inkscape:connector-curvature="0" style="fill:#ffffff"/>
									
										<linearGradient id="SVGID_3_" gradientUnits="userSpaceOnUse" x1="1107.0088" y1="1626.8633" x2="1115.5762" y2="1626.8633" gradientTransform="translate(-1002,-1567)">
										<stop offset="0.0056" style="stop-color:#6176B9" id="stop42"/>
										<stop offset="0.691" style="stop-color:#394A9F" id="stop44"/>
									</linearGradient>
									<path d="m 113.576,58.601 c 0,0 -2.854,-1.291 -5.629,0.453 -2.77,1.742 -2.668,3.523 -2.668,3.523 0,0 -1.473,-3.283 2.453,-4.891 3.93,-1.61 5.844,0.915 5.844,0.915 z" id="path46" style="fill:url(#SVGID_3_)" inkscape:connector-curvature="0"/>
									
										<linearGradient id="SVGID_4_" gradientUnits="userSpaceOnUse" x1="1133.9629" y1="1624.2539" x2="1141.7676" y2="1624.2539" gradientTransform="translate(-1002,-1567)">
										<stop offset="0.0056" style="stop-color:#6176B9" id="stop49"/>
										<stop offset="0.691" style="stop-color:#394A9F" id="stop51"/>
									</linearGradient>
									<path d="m 139.768,58.341 c 0,0 -2.051,-1.172 -3.643,-1.152 -3.268,0.043 -4.162,1.488 -4.162,1.488 0,0 0.549,-3.445 4.734,-2.754 2.266,0.377 3.071,2.418 3.071,2.418 z" id="path53" style="fill:url(#SVGID_4_)" inkscape:connector-curvature="0"/>
								</g>
							</g>
						</g>
					</g>
				</g>
			</g>
		</g>
	</g>
	<path d="m 124.09,84.178 c 0.379,-2.291 6.299,-6.625 10.49,-6.887 4.201,-0.264 5.51,-0.205 9.01,-1.043 3.508,-0.838 12.535,-3.088 15.033,-4.242 2.504,-1.156 13.102,0.572 5.631,4.738 -3.234,1.809 -11.945,5.131 -18.172,6.988 -6.219,1.861 -9.99,-1.777 -12.059,1.281 -1.646,2.432 -0.334,5.762 7.098,6.453 10.037,0.93 19.66,-4.52 20.719,-1.625 1.064,2.895 -8.625,6.508 -14.527,6.623 -5.891,0.111 -17.773,-3.896 -19.553,-5.137 -1.785,-1.239 -4.164,-4.13 -3.67,-7.149 z" id="path55" inkscape:connector-curvature="0" style="fill:#fdd20a"/>
</g>

<g id="g99" transform="matrix(1.2785388,0,0,1.2785388,-90.401282,-27.531687)">
	<path d="m 128.633,115.475 c 0,0 -14.1,-7.521 -14.33,-4.47 -0.238,3.056 0,15.509 1.643,16.451 1.646,0.938 13.395,-6.108 13.395,-6.108 l -0.708,-5.873 z" id="path101" inkscape:connector-curvature="0" style="fill:#65bc46"/>
	<path d="m 134.035,115.001 c 0,0 9.635,-7.285 11.754,-6.815 2.111,0.479 2.582,15.51 0.701,16.227 -1.881,0.693 -12.908,-3.814 -12.908,-3.814 l 0.453,-5.598 z" id="path103" inkscape:connector-curvature="0" style="fill:#65bc46"/>
	<path d="m 125.219,116.271 c 0,4.931 -0.709,7.049 1.41,7.517 2.112,0.473 6.105,0 7.518,-0.938 1.41,-0.938 0.232,-7.281 -0.232,-8.465 -0.477,-1.171 -8.696,-0.228 -8.696,1.886 z" id="path105" inkscape:connector-curvature="0" style="fill:#43a244"/>
	<path d="m 126.115,115.175 c 0,4.933 -0.707,7.05 1.41,7.519 2.106,0.477 6.104,0 7.518,-0.938 1.41,-0.941 0.232,-7.279 -0.238,-8.466 -0.471,-1.172 -8.69,-0.228 -8.69,1.885 z" id="path107" inkscape:connector-curvature="0" style="fill:#65bc46"/>
</g>
<circle stroke-miterlimit="10" cx="127.021" cy="77.848" r="53" id="circle109" sodipodi:cx="127.021" sodipodi:cy="77.848" sodipodi:rx="53" sodipodi:ry="53" transform="matrix(1.2785388,0,0,1.2785388,-90.401282,-27.531687)" style="fill:none;stroke:#ffffff;stroke-width:3.5;stroke-miterlimit:10"/>
</svg>