<?xml version="1.0" encoding="UTF-8" standalone="no"?>
<svg
   xmlns:dc="http://purl.org/dc/elements/1.1/"
   xmlns:cc="http://creativecommons.org/ns#"
   xmlns:rdf="http://www.w3.org/1999/02/22-rdf-syntax-ns#"
   xmlns:svg="http://www.w3.org/2000/svg"
   xmlns="http://www.w3.org/2000/svg"
   xmlns:sodipodi="http://sodipodi.sourceforge.net/DTD/sodipodi-0.dtd"
   xmlns:inkscape="http://www.inkscape.org/namespaces/inkscape"
   version="1.0"
   width="400.000000pt"
   height="400pt"
   viewBox="0 0 300.000000 204.000000"
   preserveAspectRatio="xMidYMid meet"
   id="svg2"
   inkscape:version="0.91 r13725"
   sodipodi:docname="MDN.svg">
  <defs
     id="defs12" />
  <sodipodi:namedview
     pagecolor="#ffffff"
     bordercolor="#666666"
     borderopacity="1"
     objecttolerance="10"
     gridtolerance="10"
     guidetolerance="10"
     inkscape:pageopacity="0"
     inkscape:pageshadow="2"
     inkscape:window-width="1920"
     inkscape:window-height="1017"
     id="namedview10"
     showgrid="false"
     inkscape:zoom="0.9254902"
     inkscape:cx="187.5"
     inkscape:cy="127.5"
     inkscape:window-x="-8"
     inkscape:window-y="-8"
     inkscape:window-maximized="1"
     inkscape:current-layer="svg2" />
  <metadata
     id="metadata4">
Created by potrace 1.10, written by Peter Selinger 2001-2011
<rdf:RDF>
  <cc:Work
     rdf:about="">
    <dc:format>image/svg+xml</dc:format>
    <dc:type
       rdf:resource="http://purl.org/dc/dcmitype/StillImage" />
  </cc:Work>
</rdf:RDF>
</metadata>
  <g
     transform="matrix(0.11181834,0,0,-0.14526254,-9.0226505,250.66881)"
     id="g6"
     style="fill:#000000;stroke:none">
    <path
       d="m 465,1725 -320,-92 -3,-722 c -1,-396 1,-721 5,-721 4,0 150,39 324,86 l 317,87 326,-89 326,-88 324,88 324,88 319,-86 c 176,-47 322,-86 326,-86 4,0 6,325 5,722 l -3,721 -310,89 c -170,49 -321,89 -335,89 -14,1 -161,-38 -328,-85 -167,-47 -311,-86 -322,-86 -10,0 -155,38 -322,85 -167,47 -310,87 -318,89 -8,2 -159,-38 -335,-89 z m 985,-278 c 87,-18 116,-21 171,-13 100,13 154,2 202,-44 29,-26 42,-47 42,-66 1,-25 9,-33 56,-57 30,-15 120,-46 199,-68 206,-58 230,-72 230,-140 0,-16 5,-48 11,-71 11,-41 10,-46 -26,-105 -36,-62 -38,-63 -80,-63 -25,0 -66,-11 -101,-27 -67,-31 -116,-33 -247,-8 -44,8 -96,15 -116,15 -54,0 -180,-50 -217,-87 -35,-35 -91,-180 -86,-222 l 3,-24 -133,6 c -155,6 -288,37 -401,91 -76,37 -187,111 -187,126 0,5 14,12 32,15 29,7 30,9 15,20 -16,12 -15,15 15,34 l 33,22 -30,-7 c -16,-4 -45,-13 -62,-20 -18,-7 -33,-10 -33,-7 0,3 14,23 31,44 17,21 28,39 25,39 -4,0 -34,-14 -67,-30 -53,-27 -59,-28 -50,-11 6,11 36,41 66,67 30,26 53,49 51,51 -2,2 -46,-12 -97,-31 -51,-19 -96,-33 -98,-30 -3,3 30,38 73,79 78,74 78,74 40,63 -22,-5 -61,-19 -88,-30 -98,-38 -68,-1 60,76 72,44 53,45 -68,6 -51,-16 -94,-28 -96,-26 -7,8 75,67 164,117 51,29 92,55 90,57 -2,2 -52,-6 -112,-17 -59,-11 -110,-19 -112,-16 -6,5 108,79 248,158 268,153 417,184 650,134 z"
       id="path8"
       inkscape:connector-curvature="0" />
  </g>
</svg>
