<?xml version="1.0" standalone="no"?>
<!DOCTYPE svg PUBLIC "-//W3C//DTD SVG 20010904//EN"
 "http://www.w3.org/TR/2001/REC-SVG-20010904/DTD/svg10.dtd">
<svg version="1.0" xmlns="http://www.w3.org/2000/svg"
 width="196.000000pt" height="196.000000pt" viewBox="0 0 196.000000 196.000000"
 preserveAspectRatio="xMidYMid meet">
<metadata>
Created by potrace 1.13, written by Peter Selinger 2001-2015
</metadata>
<g transform="translate(0.000000,196.000000) scale(0.100000,-0.100000)"
fill="#000000" stroke="none">
<path d="M813 1945 c-355 -64 -644 -312 -760 -650 -174 -510 101 -1067 612
-1242 510 -174 1067 101 1242 612 174 510 -101 1067 -612 1242 -150 51 -332
65 -482 38z m278 -259 c167 -36 281 -138 330 -297 22 -70 24 -120 7 -137 -7
-7 -45 -12 -99 -12 l-86 0 -12 59 c-19 97 -87 170 -185 201 -23 8 -73 11 -125
8 -70 -3 -99 -10 -144 -31 -152 -75 -138 -245 28 -330 17 -8 112 -42 211 -75
100 -33 208 -74 241 -90 78 -40 152 -108 188 -174 26 -46 30 -65 33 -153 3
-82 0 -111 -16 -158 -43 -121 -145 -215 -281 -258 -93 -29 -254 -36 -345 -15
-207 49 -366 208 -399 400 -16 97 -12 101 104 101 l94 0 7 -52 c16 -109 85
-205 177 -246 70 -31 200 -35 289 -8 56 17 77 29 110 65 69 74 81 181 29 250
-40 52 -101 82 -298 147 -99 32 -203 70 -232 84 -122 61 -201 143 -233 243
-22 72 -16 199 14 264 27 62 103 137 173 171 109 54 284 71 420 43z"/>
</g>
</svg>
